<?xml version="1.0" encoding="UTF-8" standalone="no" ?>
<!DOCTYPE svg PUBLIC "-//W3C//DTD SVG 1.1//EN" "http://www.w3.org/Graphics/SVG/1.1/DTD/svg11.dtd">
<svg xmlns="http://www.w3.org/2000/svg" xmlns:xlink="http://www.w3.org/1999/xlink" version="1.1" width="250" height="238" viewBox="0 0 250 238" xml:space="preserve">
<desc>Created with Fabric.js 3.6.6</desc>
<defs>
</defs>
<g transform="matrix(0.37 0 0 0.37 124.75 112.75)"  >
<g style=""   >
		<g transform="matrix(33.33 0 0 33.33 0 0)" id="Rectangle"  >
<rect style="stroke: none; stroke-width: 1; stroke-dasharray: none; stroke-linecap: butt; stroke-dashoffset: 0; stroke-linejoin: miter; stroke-miterlimit: 4; fill: none; fill-rule: nonzero; opacity: 1;"  x="-12" y="-12" rx="0" ry="0" width="24" height="24" />
</g>
		<g transform="matrix(33.33 0 0 33.33 0 -50)" id="Rectangle"  >
<rect style="stroke: rgb(0,0,0); stroke-width: 2; stroke-dasharray: none; stroke-linecap: round; stroke-dashoffset: 0; stroke-linejoin: miter; stroke-miterlimit: 4; fill: none; fill-rule: evenodd; opacity: 1;"  x="-9" y="-6.5" rx="2" ry="2" width="18" height="13" />
</g>
		<g transform="matrix(33.33 0 0 33.33 0 300)" id="Path"  >
<line style="stroke: rgb(0,0,0); stroke-width: 2; stroke-dasharray: none; stroke-linecap: round; stroke-dashoffset: 0; stroke-linejoin: miter; stroke-miterlimit: 4; fill: none; fill-rule: evenodd; opacity: 1;"  x1="-4.5" y1="0" x2="4.5" y2="0" />
</g>
		<g transform="matrix(33.33 0 0 33.33 0 233.33)" id="Path"  >
<line style="stroke: rgb(0,0,0); stroke-width: 2; stroke-dasharray: none; stroke-linecap: round; stroke-dashoffset: 0; stroke-linejoin: miter; stroke-miterlimit: 4; fill: none; fill-rule: evenodd; opacity: 1;"  x1="0" y1="-2" x2="0" y2="2" />
</g>
</g>
</g>
<g transform="matrix(0.42 0 0 0.42 124.5 94)" id="XMLID_92_"  >
<path style="stroke: none; stroke-width: 1; stroke-dasharray: none; stroke-linecap: butt; stroke-dashoffset: 0; stroke-linejoin: miter; stroke-miterlimit: 4; fill: rgb(0,0,0); fill-rule: nonzero; opacity: 1;"  transform=" translate(-152.5, -152.5)" d="M 274.659 244.888 c -8.944 -3.663 -12.77 -8.524 -12.4 -15.777 c 0.381 -8.466 -4.422 -14.667 -6.703 -17.117 c 1.378 -5.264 5.405 -23.474 0.004 -39.291 c -5.804 -16.93 -23.524 -42.787 -41.808 -68.204 c -7.485 -10.438 -7.839 -21.784 -8.248 -34.922 c -0.392 -12.531 -0.834 -26.735 -7.822 -42.525 C 190.084 9.859 174.838 0 155.851 0 c -11.295 0 -22.889 3.53 -31.811 9.684 c -18.27 12.609 -15.855 40.1 -14.257 58.291 c 0.219 2.491 0.425 4.844 0.545 6.853 c 1.064 17.816 0.096 27.206 -1.17 30.06 c -0.819 1.865 -4.851 7.173 -9.118 12.793 c -4.413 5.812 -9.416 12.4 -13.517 18.539 c -4.893 7.387 -8.843 18.678 -12.663 29.597 c -2.795 7.99 -5.435 15.537 -8.005 20.047 c -4.871 8.676 -3.659 16.766 -2.647 20.505 c -1.844 1.281 -4.508 3.803 -6.757 8.557 c -2.718 5.8 -8.233 8.917 -19.701 11.122 c -5.27 1.078 -8.904 3.294 -10.804 6.586 c -2.765 4.791 -1.259 10.811 0.115 14.925 c 2.03 6.048 0.765 9.876 -1.535 16.826 c -0.53 1.604 -1.131 3.42 -1.74 5.423 c -0.959 3.161 -0.613 6.035 1.026 8.542 c 4.331 6.621 16.969 8.956 29.979 10.492 c 7.768 0.922 16.27 4.029 24.493 7.035 c 8.057 2.944 16.388 5.989 23.961 6.913 c 1.151 0.145 2.291 0.218 3.39 0.218 c 11.434 0 16.6 -7.587 18.238 -10.704 c 4.107 -0.838 18.272 -3.522 32.871 -3.882 c 14.576 -0.416 28.679 2.462 32.674 3.357 c 1.256 2.404 4.567 7.895 9.845 10.724 c 2.901 1.586 6.938 2.495 11.073 2.495 c 0.001 0 0 0 0.001 0 c 4.416 0 12.817 -1.044 19.466 -8.039 c 6.632 -7.028 23.202 -16 35.302 -22.551 c 2.7 -1.462 5.226 -2.83 7.441 -4.065 c 6.797 -3.768 10.506 -9.152 10.175 -14.771 C 282.445 250.905 279.356 246.811 274.659 244.888 z M 124.189 243.535 c -0.846 -5.96 -8.513 -11.871 -17.392 -18.715 c -7.26 -5.597 -15.489 -11.94 -17.756 -17.312 c -4.685 -11.082 -0.992 -30.568 5.447 -40.602 c 3.182 -5.024 5.781 -12.643 8.295 -20.011 c 2.714 -7.956 5.521 -16.182 8.66 -19.783 c 4.971 -5.622 9.565 -16.561 10.379 -25.182 c 4.655 4.444 11.876 10.083 18.547 10.083 c 1.027 0 2.024 -0.134 2.977 -0.403 c 4.564 -1.318 11.277 -5.197 17.769 -8.947 c 5.597 -3.234 12.499 -7.222 15.096 -7.585 c 4.453 6.394 30.328 63.655 32.972 82.044 c 2.092 14.55 -0.118 26.578 -1.229 31.289 c -0.894 -0.122 -1.96 -0.221 -3.08 -0.221 c -7.207 0 -9.115 3.934 -9.612 6.283 c -1.278 6.103 -1.413 25.618 -1.427 30.003 c -2.606 3.311 -15.785 18.903 -34.706 21.706 c -7.707 1.12 -14.904 1.688 -21.39 1.688 c -5.544 0 -9.082 -0.428 -10.551 -0.651 l -9.508 -10.879 C 121.429 254.489 125.177 250.583 124.189 243.535 z M 136.254 64.149 c -0.297 0.128 -0.589 0.265 -0.876 0.411 c -0.029 -0.644 -0.096 -1.297 -0.199 -1.952 c -1.038 -5.975 -5 -10.312 -9.419 -10.312 c -0.327 0 -0.656 0.025 -1.017 0.08 c -2.629 0.438 -4.691 2.413 -5.821 5.213 c 0.991 -6.144 4.472 -10.693 8.602 -10.693 c 4.85 0 8.947 6.536 8.947 14.272 C 136.471 62.143 136.4 63.113 136.254 64.149 z M 173.94 68.756 c 0.444 -1.414 0.684 -2.944 0.684 -4.532 c 0 -7.014 -4.45 -12.509 -10.131 -12.509 c -5.552 0 -10.069 5.611 -10.069 12.509 c 0 0.47 0.023 0.941 0.067 1.411 c -0.294 -0.113 -0.581 -0.223 -0.861 -0.329 c -0.639 -1.935 -0.962 -3.954 -0.962 -6.015 c 0 -8.387 5.36 -15.211 11.95 -15.211 c 6.589 0 11.95 6.824 11.95 15.211 C 176.568 62.78 175.605 66.11 173.94 68.756 z M 169.081 85.08 c -0.095 0.424 -0.297 0.612 -2.531 1.774 c -1.128 0.587 -2.532 1.318 -4.289 2.388 l -1.174 0.711 c -4.718 2.86 -15.765 9.559 -18.764 9.952 c -2.037 0.274 -3.297 -0.516 -6.13 -2.441 c -0.639 -0.435 -1.319 -0.897 -2.044 -1.362 c -5.107 -3.351 -8.392 -7.042 -8.763 -8.485 c 1.665 -1.287 5.792 -4.508 7.905 -6.415 c 4.289 -3.988 8.605 -6.668 10.741 -6.668 c 0.113 0 0.215 0.008 0.321 0.028 c 2.51 0.443 8.701 2.914 13.223 4.718 c 2.09 0.834 3.895 1.554 5.165 2.01 C 166.742 82.664 168.828 84.422 169.081 85.08 z M 205.028 271.45 c 2.257 -10.181 4.857 -24.031 4.436 -32.196 c -0.097 -1.855 -0.261 -3.874 -0.42 -5.826 c -0.297 -3.65 -0.738 -9.075 -0.283 -10.684 c 0.09 -0.042 0.19 -0.078 0.301 -0.109 c 0.019 4.668 1.033 13.979 8.479 17.226 c 2.219 0.968 4.755 1.458 7.537 1.458 c 7.459 0 15.735 -3.659 19.125 -7.049 c 1.996 -1.996 3.675 -4.438 4.851 -6.372 c 0.257 0.753 0.415 1.737 0.332 3.005 c -0.443 6.885 2.903 16.019 9.271 19.385 l 0.927 0.487 c 2.268 1.19 8.292 4.353 8.389 5.853 c -0.001 0.001 -0.051 0.177 -0.387 0.489 c -1.509 1.379 -6.82 4.091 -11.956 6.714 c -9.111 4.652 -19.438 9.925 -24.076 14.803 c -6.53 6.872 -13.916 11.488 -18.376 11.488 c -0.537 0 -1.026 -0.068 -1.461 -0.206 C 206.873 288.406 202.886 281.417 205.028 271.45 z M 39.917 245.477 c -0.494 -2.312 -0.884 -4.137 -0.465 -5.905 c 0.304 -1.31 6.771 -2.714 9.533 -3.313 c 3.883 -0.843 7.899 -1.714 10.525 -3.308 c 3.551 -2.151 5.474 -6.118 7.17 -9.618 c 1.228 -2.531 2.496 -5.148 4.005 -6.007 c 0.085 -0.05 0.215 -0.108 0.463 -0.108 c 2.827 0 8.759 5.943 12.177 11.262 c 0.867 1.341 2.473 4.028 4.331 7.139 c 5.557 9.298 13.166 22.033 17.14 26.301 c 3.581 3.837 9.378 11.214 7.952 17.541 c -1.044 4.909 -6.602 8.901 -7.913 9.784 c -0.476 0.108 -1.065 0.163 -1.758 0.163 c -7.606 0 -22.662 -6.328 -30.751 -9.728 l -1.197 -0.503 c -4.517 -1.894 -11.891 -3.087 -19.022 -4.241 c -5.674 -0.919 -13.444 -2.176 -14.732 -3.312 c -1.044 -1.171 0.167 -4.978 1.235 -8.337 c 0.769 -2.414 1.563 -4.91 1.998 -7.523 C 41.225 251.596 40.499 248.203 39.917 245.477 z" stroke-linecap="round" />
</g>
</svg>