<?xml version="1.0" encoding="UTF-8" standalone="no" ?>
<!DOCTYPE svg PUBLIC "-//W3C//DTD SVG 1.1//EN" "http://www.w3.org/Graphics/SVG/1.1/DTD/svg11.dtd">
<svg xmlns="http://www.w3.org/2000/svg" xmlns:xlink="http://www.w3.org/1999/xlink" version="1.1" width="250" height="238" viewBox="0 0 250 238" xml:space="preserve">
<desc>Created with Fabric.js 3.6.6</desc>
<defs>
</defs>
<g transform="matrix(0.32 0 0 0.38 129.5 119.63)"  >
<g style=""   >
		<g transform="matrix(32 0 0 32 0 0)"  >
<rect style="stroke: rgb(0,0,0); stroke-width: 1.5; stroke-dasharray: none; stroke-linecap: round; stroke-dashoffset: 0; stroke-linejoin: round; stroke-miterlimit: 4; fill: none; fill-rule: nonzero; opacity: 1;"  x="-6" y="-9" rx="3" ry="3" width="12" height="18" />
</g>
		<g transform="matrix(32 0 0 32 0 192)"  >
<path style="stroke: none; stroke-width: 1; stroke-dasharray: none; stroke-linecap: butt; stroke-dashoffset: 0; stroke-linejoin: miter; stroke-miterlimit: 4; fill: rgb(0,0,0); fill-rule: nonzero; opacity: 1;"  transform=" translate(-12.5, -18)" d="M 12.5 18.5 C 12.3665 18.5 12.2409 18.448 12.1465 18.3536 C 12.052 18.2591 12 18.1336 12 18 C 12 17.9008 12.0291 17.8047 12.0843 17.7222 C 12.1394 17.6397 12.217 17.576 12.3086 17.5381 C 12.3696 17.5128 12.434 17.5 12.5 17.5 C 12.5327 17.5 12.5655 17.5032 12.5975 17.5096 C 12.6949 17.529 12.7834 17.5763 12.8536 17.6464 C 12.9237 17.7166 12.971 17.8051 12.9904 17.9025 C 13.0098 17.9998 12.9999 18.0997 12.9619 18.1913 C 12.924 18.283 12.8603 18.3606 12.7778 18.4157 C 12.6953 18.4709 12.5992 18.5 12.5 18.5 Z" stroke-linecap="round" />
</g>
		<g transform="matrix(32 0 0 32 0 192)"  >
<path style="stroke: none; stroke-width: 1; stroke-dasharray: none; stroke-linecap: butt; stroke-dashoffset: 0; stroke-linejoin: miter; stroke-miterlimit: 4; fill: rgb(0,0,0); fill-rule: nonzero; opacity: 1;"  transform=" translate(-12.5, -18)" d="M 12.5 19 C 12.2348 19 11.9804 18.8946 11.7929 18.7071 C 11.6054 18.5196 11.5 18.2652 11.5 18 C 11.5 17.8022 11.5586 17.6089 11.6685 17.4444 C 11.7784 17.28 11.9346 17.1518 12.1173 17.0761 C 12.3 17.0004 12.5011 16.9806 12.6951 17.0192 C 12.8891 17.0578 13.0673 17.153 13.2071 17.2929 C 13.347 17.4327 13.4422 17.6109 13.4808 17.8049 C 13.5194 17.9989 13.4996 18.2 13.4239 18.3827 C 13.3482 18.5654 13.22 18.7216 13.0556 18.8315 C 12.8911 18.9414 12.6978 19 12.5 19 Z" stroke-linecap="round" />
</g>
</g>
</g>
<g transform="matrix(4.42 0 0 4.42 129.76 103.92)"  >
<path style="stroke: none; stroke-width: 1; stroke-dasharray: none; stroke-linecap: butt; stroke-dashoffset: 0; stroke-linejoin: miter; stroke-miterlimit: 4; fill: rgb(0,0,0); fill-rule: nonzero; opacity: 1;"  transform=" translate(-12, -12)" d="M 14.97535 3.01886 l 0.95982 -1.73159 a 0.19342 0.19342 0 0 0 -0.33833 -0.18756 l -0.97045 1.75078 a 6.54141 6.54141 0 0 0 -5.25275 0 L 8.40316 1.09971 a 0.19342 0.19342 0 0 0 -0.33833 0.18756 l 0.95985 1.7316 A 5.54614 5.54614 0 0 0 5.93152 7.89522 h 12.137 A 5.54615 5.54615 0 0 0 14.97535 3.01886 Z M 9.19911 5.67446 a 0.5068 0.5068 0 1 1 0.5068 -0.5068 A 0.50737 0.50737 0 0 1 9.19911 5.67446 Z m 5.60178 0 a 0.5068 0.5068 0 1 1 0.5068 -0.5068 A 0.50737 0.50737 0 0 1 14.80089 5.67446 Z m -8.86946 11.497 a 1.46713 1.46713 0 0 0 1.46713 1.46713 h 0.9736 v 3.00095 a 1.36046 1.36046 0 1 0 2.72091 0 V 18.63859 h 1.81386 v 3.00095 a 1.36046 1.36046 0 1 0 2.72091 0 V 18.63859 h 0.97364 a 1.46713 1.46713 0 0 0 1.46713 -1.46713 V 8.37532 H 5.93143 Z M 4.06415 8.14191 A 1.362 1.362 0 0 0 2.7037 9.50237 v 5.66846 a 1.36046 1.36046 0 1 0 2.72091 0 V 9.50237 A 1.362 1.362 0 0 0 4.06415 8.14191 Z m 15.8717 0 a 1.362 1.362 0 0 0 -1.36046 1.36046 v 5.66846 a 1.36046 1.36046 0 1 0 2.72091 0 V 9.50237 A 1.362 1.362 0 0 0 19.93585 8.14191 Z" stroke-linecap="round" />
</g>
</svg>